<?xml version="1.0" encoding="UTF-8" standalone="no"?>
<!-- Created with Inkscape (http://www.inkscape.org/) -->

<svg
   xmlns:dc="http://purl.org/dc/elements/1.1/"
   xmlns:cc="http://creativecommons.org/ns#"
   xmlns:rdf="http://www.w3.org/1999/02/22-rdf-syntax-ns#"
   xmlns:svg="http://www.w3.org/2000/svg"
   xmlns="http://www.w3.org/2000/svg"
   xmlns:sodipodi="http://sodipodi.sourceforge.net/DTD/sodipodi-0.dtd"
   xmlns:inkscape="http://www.inkscape.org/namespaces/inkscape"
   width="335.80078"
   height="880"
   viewBox="0 0 335.8008 879.99999"
   id="svg5281"
   version="1.1"
   inkscape:version="0.91 r13725"
   sodipodi:docname="outfall_valve.svg">
  <defs
     id="defs5283" />
  <sodipodi:namedview
     id="base"
     pagecolor="#ffffff"
     bordercolor="#666666"
     borderopacity="1.0"
     inkscape:pageopacity="0.0"
     inkscape:pageshadow="2"
     inkscape:zoom="0.7"
     inkscape:cx="-49.564282"
     inkscape:cy="500.10601"
     inkscape:document-units="px"
     inkscape:current-layer="layer1"
     showgrid="false"
     inkscape:window-width="1920"
     inkscape:window-height="1018"
     inkscape:window-x="-8"
     inkscape:window-y="-8"
     inkscape:window-maximized="1"
     inkscape:snap-grids="true"
     fit-margin-top="0"
     fit-margin-left="0"
     fit-margin-right="0"
     fit-margin-bottom="0"
     borderlayer="false"
     units="px">
    <sodipodi:guide
       position="-130.34592,-699.33924"
       orientation="0,744.09449"
       id="guide3351" />
    <sodipodi:guide
       position="613.74861,-699.33924"
       orientation="-1052.3622,0"
       id="guide3353" />
    <sodipodi:guide
       position="613.74861,353.02296"
       orientation="0,-744.09449"
       id="guide3355" />
    <sodipodi:guide
       position="-130.34592,353.02296"
       orientation="1052.3622,0"
       id="guide3357" />
  </sodipodi:namedview>
  <metadata
     id="metadata5286">
    <rdf:RDF>
      <cc:Work
         rdf:about="">
        <dc:format>image/svg+xml</dc:format>
        <dc:type
           rdf:resource="http://purl.org/dc/dcmitype/StillImage" />
        <dc:title></dc:title>
      </cc:Work>
    </rdf:RDF>
  </metadata>
  <g
     inkscape:label="Layer 1"
     inkscape:groupmode="layer"
     id="layer1"
     transform="translate(-130.34591,526.9771)">
    <g
       id="g3505"
       transform="translate(0,94.000001)">
      <g
         transform="matrix(0.72673167,0,0,1,35.619421,-676.28576)"
         id="g3364">
        <g
           id="g3345"
           transform="translate(-50.507627,-47.47717)">
          <rect
             y="437.10431"
             x="180.85352"
             height="255.3913"
             width="28.70392"
             id="rect6499"
             style="fill:#000000" />
          <rect
             y="437.10431"
             x="614.21948"
             height="255.3913"
             width="28.70392"
             id="rect6499-1"
             style="fill:#000000" />
          <rect
             transform="matrix(0.47976039,-0.87739955,0.87739955,0.47976039,0,0)"
             y="393.21048"
             x="-311.78162"
             height="478.96274"
             width="28.70392"
             id="rect6499-7-5"
             style="fill:#000000" />
          <rect
             transform="matrix(0.47976039,0.87739955,0.87739955,-0.47976039,0,0)"
             y="-148.16962"
             x="678.31122"
             height="478.96274"
             width="28.70392"
             id="rect6499-7-5-6"
             style="fill:#000000" />
        </g>
        <path
           style="fill:#000000;fill-opacity:1;stroke-width:0.1;stroke-miterlimit:4;stroke-dasharray:none"
           d="m 29.409137,127.76224 c 0,-52.165999 0.385265,-92.954338 0.876216,-92.765673 2.706253,1.039975 168.829407,92.311913 168.829407,92.758813 0,0.44454 -166.095698,91.71124 -168.836162,92.77254 -0.481993,0.18666 -0.869461,-41.15358 -0.869461,-92.76568 z"
           id="path3350"
           inkscape:connector-curvature="0"
           transform="translate(130.34589,388.97135)" />
        <path
           style="fill:#000000;fill-opacity:1;stroke-width:0.1;stroke-miterlimit:4;stroke-dasharray:none"
           d="m 478.81054,573.22237 c -52.58368,-28.81104 -95.60743,-52.65686 -95.60833,-52.9907 -10e-4,-0.50613 188.8931,-104.19092 191.93735,-105.35503 0.5637,-0.21557 1.00034,45.74436 1.00034,105.29257 0,58.12132 -0.38759,105.62151 -0.86134,105.55599 -0.47373,-0.0655 -43.88434,-23.69178 -96.46802,-52.50283 z"
           id="path3352"
           inkscape:connector-curvature="0" />
        <path
           style="fill:#000000;fill-opacity:1;stroke-width:0.1;stroke-miterlimit:4;stroke-dasharray:none"
           d="m 0.31674338,128.7724 0,-127.2792258 14.33969262,0 14.339692,0 100.992372,55.2114508 100.99239,55.211455 4.11846,-2.1979 c 2.26516,-1.20885 47.92923,-26.167643 101.47572,-55.463993 l 97.35725,-53.26608907 14.01207,0.30578547 14.01207,0.3057855 0,127.2259711 0,127.22598 -13.77824,0 c -10.28782,0 -14.06234,-0.34305 -14.89975,-1.35417 -0.61683,-0.7448 -46.29087,-26.02199 -101.49785,-56.17154 C 243.60238,150.37015 231.12435,143.8361 229.10073,144.75813 222.07271,147.9603 29.931086,253.47688 28.994729,254.64841 c -0.858479,1.07411 -4.352997,1.40321 -14.89975,1.40321 l -13.77823562,0 0,-127.27922 z M 122.28569,171.47143 c 43.47062,-23.76226 79.04035,-43.4314 79.04386,-43.70919 0.004,-0.27779 -35.31869,-19.82424 -78.49379,-43.436557 C 79.660665,60.713367 40.795307,39.456714 36.4683,37.088676 l -7.867285,-4.305524 0,95.000998 0,95.001 7.323606,-4.0548 c 4.027983,-2.23014 42.890468,-23.49665 86.361069,-47.25892 z m 311.14385,-91.104253 -0.26243,-47.395065 -86.1155,47.089825 c -47.36353,25.899403 -86.11551,47.347833 -86.11551,47.663183 0,0.31534 38.75198,21.76522 86.11551,47.6664 l 86.1155,47.09305 0.26243,-47.36116 c 0.14434,-26.04865 0.14434,-68.68894 0,-94.756233 z"
           id="path3354"
           inkscape:connector-curvature="0"
           transform="translate(130.34589,388.97135)" />
        <path
           style="fill:#000000;fill-opacity:1;stroke-width:0.1;stroke-miterlimit:4;stroke-dasharray:none"
           d="m 28.983023,104.52873 c 0,-6.389211 0.164017,-9.00298 0.364483,-5.808373 0.200465,3.194603 0.200465,8.422143 0,11.616753 -0.200466,3.19461 -0.364483,0.58084 -0.364483,-5.80838 z"
           id="path3356"
           inkscape:connector-curvature="0"
           transform="translate(130.34589,388.97135)" />
        <path
           style="fill:#000000;fill-opacity:1;stroke-width:0.1;stroke-miterlimit:4;stroke-dasharray:none"
           d="m 0.31674338,128.7724 0,-127.2792258 14.39913662,0 14.399138,0 98.990492,54.1412658 c 54.44476,29.777696 99.93388,54.58848 101.08692,55.13509 1.76742,0.83784 18.01778,-7.69908 103.54064,-54.393808 l 101.44419,-55.38762407 13.8896,0.30720317 13.8896,0.3072031 0,127.2245558 0,127.22456 -14.05796,0 c -7.73187,0 -14.20947,-0.38972 -14.39468,-0.86603 -0.44817,-1.15271 -4.34883,-3.32462 -92.26059,-51.37103 -100.53994,-54.9481 -108.03195,-58.96562 -110.23913,-59.11474 -1.0383,-0.0701 -22.34339,11.05701 -47.34467,24.72702 -118.816549,64.96561 -152.449117,83.50593 -154.19793,85.00331 -1.535551,1.31478 -4.470864,1.62147 -15.519244,1.62147 l -13.62551262,0 0,-127.27922 z M 112.44368,176.68553 c 41.391,-22.6413 78.31691,-42.79774 82.05758,-44.79211 3.74067,-1.99435 6.80186,-3.85339 6.80264,-4.13118 0.001,-0.38826 -88.21842,-48.875296 -165.809939,-91.132136 l -6.892946,-3.753944 0,94.96279 0,94.9628 4.293148,-2.47512 c 2.361232,-1.36131 38.158513,-20.99982 79.549517,-43.6411 z m 321.22851,-49.5025 0,-94.523398 -5.3033,2.986214 c -2.91682,1.642418 -39.62324,21.74128 -81.56982,44.664138 -41.94659,22.922856 -78.41918,42.863506 -81.05019,44.312556 -2.63102,1.44904 -4.77993,2.86191 -4.77536,3.1397 0.005,0.27779 33.25553,18.68782 73.89103,40.91118 40.6355,22.22336 78.92262,43.19757 85.08249,46.60936 6.15987,3.41178 11.76798,6.25283 12.46246,6.31345 1.00194,0.0875 1.26269,-19.40914 1.26269,-94.4132 z"
           id="path3358"
           inkscape:connector-curvature="0"
           transform="translate(130.34589,388.97135)" />
        <path
           style="fill:#000000;fill-opacity:1;stroke-width:0.1;stroke-miterlimit:4;stroke-dasharray:none"
           d="M 30.276334,198.29244 C 29.475474,172.57685 29.628964,72.795332 30.502476,51.281198 l 0.62392,-15.366816 14.142136,7.698846 C 66.594014,55.222621 180.5134,117.82788 189.46734,122.85878 c 4.30553,2.41911 7.82065,4.62567 7.8114,4.90346 -0.009,0.27779 -4.44108,2.95327 -9.84852,5.94549 -54.979,30.42286 -95.386685,52.62214 -149.325204,82.03666 l -7.163516,3.9065 -0.665166,-21.35845 z"
           id="path3360"
           inkscape:connector-curvature="0"
           transform="translate(130.34589,388.97135)" />
        <path
           style="fill:#000000;fill-opacity:1;stroke-width:0.1;stroke-miterlimit:4;stroke-dasharray:none"
           d="m 155.63662,592.9376 c -0.9476,-25.5558 -0.94744,-132.9167 2.5e-4,-158.47468 l 0.73259,-19.75718 10.68195,5.61247 c 15.48757,8.13742 129.70894,69.36036 152.94615,81.97952 10.87166,5.90395 19.76665,11.01635 19.76665,11.3609 0,0.77178 -96.87619,53.13353 -173.82667,93.95361 l -9.56858,5.07586 -0.73234,-19.7505 z"
           id="path3362"
           inkscape:connector-curvature="0" />
      </g>
      <rect
         y="-498.96344"
         x="276.02295"
         height="325.26913"
         width="44.446709"
         id="rect3501"
         style="fill:#000000;fill-opacity:1;stroke-width:0.1;stroke-miterlimit:4;stroke-dasharray:none" />
      <path
         transform="scale(1,-1)"
         inkscape:transform-center-y="-26.527317"
         d="m 298.24631,621.20634 -45.94668,-79.58197 -45.94667,-79.58197 91.89335,0 91.89334,-10e-6 -45.94667,79.58198 z"
         inkscape:randomized="0"
         inkscape:rounded="0"
         inkscape:flatsided="false"
         sodipodi:arg2="2.6179939"
         sodipodi:arg1="1.5707963"
         sodipodi:r2="53.054649"
         sodipodi:r1="106.1093"
         sodipodi:cy="515.09705"
         sodipodi:cx="298.24631"
         sodipodi:sides="3"
         id="path3503"
         style="fill:#000000;fill-opacity:1;stroke-width:0.1;stroke-miterlimit:4;stroke-dasharray:none"
         sodipodi:type="star" />
    </g>
  </g>
</svg>
