<?xml version="1.0" encoding="UTF-8" standalone="no"?>
<!-- Created with Inkscape (http://www.inkscape.org/) -->

<svg
   xmlns:osb="http://www.openswatchbook.org/uri/2009/osb"
   xmlns:dc="http://purl.org/dc/elements/1.1/"
   xmlns:cc="http://creativecommons.org/ns#"
   xmlns:rdf="http://www.w3.org/1999/02/22-rdf-syntax-ns#"
   xmlns:svg="http://www.w3.org/2000/svg"
   xmlns="http://www.w3.org/2000/svg"
   xmlns:xlink="http://www.w3.org/1999/xlink"
   xmlns:sodipodi="http://sodipodi.sourceforge.net/DTD/sodipodi-0.dtd"
   xmlns:inkscape="http://www.inkscape.org/namespaces/inkscape"
   width="111.83296mm"
   height="111.82488mm"
   viewBox="0 0 396.25853 396.2299"
   id="svg5281"
   version="1.1"
   inkscape:version="0.91 r13725"
   sodipodi:docname="pump.svg">
  <defs
     id="defs5283">
    <linearGradient
       id="linearGradient8123"
       osb:paint="solid">
      <stop
         style="stop-color:#000000;stop-opacity:1;"
         offset="0"
         id="stop8125" />
    </linearGradient>
    <linearGradient
       id="linearGradient8051"
       osb:paint="solid">
      <stop
         style="stop-color:#000000;stop-opacity:0.30434781;"
         offset="0"
         id="stop8053" />
    </linearGradient>
    <linearGradient
       id="linearGradient6601"
       osb:paint="solid">
      <stop
         style="stop-color:#000000;stop-opacity:0.4037267;"
         offset="0"
         id="stop6603" />
    </linearGradient>
    <linearGradient
       inkscape:collect="always"
       xlink:href="#linearGradient8123"
       id="linearGradient8127"
       x1="142.27516"
       y1="569.10376"
       x2="538.43359"
       y2="569.10376"
       gradientUnits="userSpaceOnUse"
       gradientTransform="translate(17.94454,399.42844)" />
    <linearGradient
       gradientTransform="translate(17.775737,399.50199)"
       inkscape:collect="always"
       xlink:href="#linearGradient8123"
       id="linearGradient8127-2"
       x1="142.27516"
       y1="569.10376"
       x2="538.43359"
       y2="569.10376"
       gradientUnits="userSpaceOnUse" />
  </defs>
  <sodipodi:namedview
     id="base"
     pagecolor="#ffffff"
     bordercolor="#666666"
     borderopacity="1.0"
     inkscape:pageopacity="0.0"
     inkscape:pageshadow="2"
     inkscape:zoom="0.98994949"
     inkscape:cx="113.97341"
     inkscape:cy="157.75141"
     inkscape:document-units="px"
     inkscape:current-layer="layer1"
     showgrid="false"
     inkscape:window-width="1920"
     inkscape:window-height="1018"
     inkscape:window-x="-8"
     inkscape:window-y="-8"
     inkscape:window-maximized="1"
     fit-margin-top="0"
     fit-margin-left="0"
     fit-margin-right="0"
     fit-margin-bottom="0" />
  <metadata
     id="metadata5286">
    <rdf:RDF>
      <cc:Work
         rdf:about="">
        <dc:format>image/svg+xml</dc:format>
        <dc:type
           rdf:resource="http://purl.org/dc/dcmitype/StillImage" />
        <dc:title></dc:title>
      </cc:Work>
    </rdf:RDF>
  </metadata>
  <g
     inkscape:label="Layer 1"
     inkscape:groupmode="layer"
     id="layer1"
     transform="translate(-173.91798,-328.06616)">
    <g
       id="g5034"
       transform="translate(2.6296351e-7,-1.3682593e-6)">
      <g
         transform="translate(13.748383,-442.35118)"
         id="g8204">
        <g
           id="g8201">
          <path
             inkscape:connector-curvature="0"
             id="path6599"
             d="m 354.21602,770.50266 c -62.3734,1.01323 -123.39961,33.47405 -158.5625,85.11133 -32.94322,46.76803 -43.76083,108.11623 -28.88501,163.34671 15.06529,58.9576 59.13646,109.3743 115.40196,132.4693 58.38644,24.8134 128.53742,18.8418 181.91383,-15.428 55.40757,-34.4493 91.41114,-97.8235 92.21593,-163.11783 1.82409,-62.67758 -28.50366,-125.12984 -78.85335,-162.49523 -35.07155,-26.66381 -79.2281,-40.72326 -123.23086,-39.88628 z"
             style="fill:#000000;fill-opacity:1;stroke:url(#linearGradient8127);stroke-width:0.1;stroke-miterlimit:4;stroke-dasharray:none" />
        </g>
        <path
           style="fill:#ffffff;fill-opacity:1;stroke:url(#linearGradient8127-2);stroke-width:0.1;stroke-miterlimit:4;stroke-dasharray:none"
           d="m 356.28935,798.39648 c -75.37468,-0.44016 -147.11628,56.83968 -163.84194,130.19557 -16.33018,67.51101 12.61087,144.07945 71.33413,181.84355 54.46776,36.2915 130.16883,38.2419 185.30327,2.1395 57.02706,-35.6712 89.82199,-107.3555 76.6995,-173.49523 -10.3892,-60.48409 -56.3576,-114.58769 -115.73154,-132.42486 -17.33631,-5.62073 -35.54291,-8.42563 -53.76342,-8.25853 z"
           id="path6599-7"
           inkscape:connector-curvature="0" />
      </g>
      <rect
         y="381.98514"
         x="269.15094"
         height="287.55518"
         width="28.70392"
         id="rect6499"
         style="fill:#000000" />
      <rect
         transform="matrix(0.5648687,-0.8251808,0.88720688,0.46137181,0,0)"
         y="428.70535"
         x="-221.74907"
         height="331.55118"
         width="27.090645"
         id="rect6499-7-1-7-3"
         style="fill:#000000" />
      <rect
         transform="matrix(0.54653722,0.83743482,0.87789684,-0.4788498,0,0)"
         y="-150.82114"
         x="711.61707"
         height="335.06726"
         width="27.999296"
         id="rect6499-7-1-7-3-2"
         style="fill:#000000" />
      <path
         inkscape:connector-curvature="0"
         id="path5032"
         d="m 290.42872,524.80433 0,-131.91843 3.51776,1.80524 c 24.78226,12.71783 237.66891,125.24838 238.65659,126.1524 1.02278,0.93615 -26.17412,16.46634 -113.65001,64.89731 -63.24702,35.01666 -118.03877,65.31258 -121.75946,67.32428 l -6.76488,3.65761 0,-131.91841 z"
         style="fill:#000000;fill-opacity:1;stroke-width:0.1;stroke-miterlimit:4;stroke-dasharray:none" />
    </g>
  </g>
</svg>
